<mxfile host="Electron" agent="Mozilla/5.0 (Windows NT 10.0; Win64; x64) AppleWebKit/537.36 (KHTML, like Gecko) draw.io/26.2.15 Chrome/134.0.6998.205 Electron/35.2.1 Safari/537.36" version="26.2.15">
  <diagram id="prtHgNgQTEPvFCAcTncT" name="Page-1">
    <mxGraphModel dx="4080" dy="1444" grid="1" gridSize="10" guides="1" tooltips="1" connect="1" arrows="1" fold="1" page="1" pageScale="1" pageWidth="827" pageHeight="1169" math="0" shadow="0">
      <root>
        <mxCell id="0" />
        <mxCell id="1" parent="0" />
        <mxCell id="QVfd-FqW5D9q3hL5yYqt-33" value="" style="rounded=0;whiteSpace=wrap;html=1;" vertex="1" parent="1">
          <mxGeometry x="-50" y="50" width="810" height="580" as="geometry" />
        </mxCell>
        <mxCell id="QVfd-FqW5D9q3hL5yYqt-3" value="" style="rounded=0;whiteSpace=wrap;html=1;" vertex="1" parent="1">
          <mxGeometry x="60" y="200" width="600" height="400" as="geometry" />
        </mxCell>
        <mxCell id="QVfd-FqW5D9q3hL5yYqt-4" value="MainActivity" style="text;html=1;align=center;verticalAlign=middle;whiteSpace=wrap;rounded=0;" vertex="1" parent="1">
          <mxGeometry x="60" y="200" width="600" height="30" as="geometry" />
        </mxCell>
        <mxCell id="QVfd-FqW5D9q3hL5yYqt-5" value="" style="rounded=0;whiteSpace=wrap;html=1;" vertex="1" parent="1">
          <mxGeometry x="80" y="300" width="560" height="280" as="geometry" />
        </mxCell>
        <mxCell id="QVfd-FqW5D9q3hL5yYqt-6" value="MainFragment" style="text;html=1;align=center;verticalAlign=middle;whiteSpace=wrap;rounded=0;" vertex="1" parent="1">
          <mxGeometry x="80" y="310" width="560" height="30" as="geometry" />
        </mxCell>
        <mxCell id="QVfd-FqW5D9q3hL5yYqt-7" value="" style="rounded=0;whiteSpace=wrap;html=1;" vertex="1" parent="1">
          <mxGeometry x="100" y="370" width="190" height="180" as="geometry" />
        </mxCell>
        <mxCell id="QVfd-FqW5D9q3hL5yYqt-9" value="WorkoutFragment" style="text;html=1;align=center;verticalAlign=middle;whiteSpace=wrap;rounded=0;" vertex="1" parent="1">
          <mxGeometry x="100" y="375" width="190" height="30" as="geometry" />
        </mxCell>
        <mxCell id="QVfd-FqW5D9q3hL5yYqt-10" value="" style="rounded=0;whiteSpace=wrap;html=1;" vertex="1" parent="1">
          <mxGeometry x="430" y="370" width="190" height="180" as="geometry" />
        </mxCell>
        <mxCell id="QVfd-FqW5D9q3hL5yYqt-11" value="PlayerFragment" style="text;html=1;align=center;verticalAlign=middle;whiteSpace=wrap;rounded=0;" vertex="1" parent="1">
          <mxGeometry x="430" y="375" width="190" height="30" as="geometry" />
        </mxCell>
        <mxCell id="QVfd-FqW5D9q3hL5yYqt-39" style="edgeStyle=orthogonalEdgeStyle;rounded=0;orthogonalLoop=1;jettySize=auto;html=1;exitX=0;exitY=0.75;exitDx=0;exitDy=0;entryX=0.5;entryY=1;entryDx=0;entryDy=0;" edge="1" parent="1" source="QVfd-FqW5D9q3hL5yYqt-12" target="QVfd-FqW5D9q3hL5yYqt-36">
          <mxGeometry relative="1" as="geometry" />
        </mxCell>
        <mxCell id="QVfd-FqW5D9q3hL5yYqt-66" style="edgeStyle=orthogonalEdgeStyle;rounded=0;orthogonalLoop=1;jettySize=auto;html=1;exitX=0.5;exitY=1;exitDx=0;exitDy=0;entryX=0.5;entryY=1;entryDx=0;entryDy=0;" edge="1" parent="1" source="QVfd-FqW5D9q3hL5yYqt-12" target="QVfd-FqW5D9q3hL5yYqt-51">
          <mxGeometry relative="1" as="geometry" />
        </mxCell>
        <mxCell id="QVfd-FqW5D9q3hL5yYqt-12" value="" style="rounded=0;whiteSpace=wrap;html=1;" vertex="1" parent="1">
          <mxGeometry x="-50" y="680" width="810" height="440" as="geometry" />
        </mxCell>
        <mxCell id="QVfd-FqW5D9q3hL5yYqt-35" style="edgeStyle=orthogonalEdgeStyle;rounded=0;orthogonalLoop=1;jettySize=auto;html=1;exitX=0.5;exitY=0;exitDx=0;exitDy=0;entryX=0.5;entryY=1;entryDx=0;entryDy=0;" edge="1" parent="1" source="QVfd-FqW5D9q3hL5yYqt-13" target="QVfd-FqW5D9q3hL5yYqt-33">
          <mxGeometry relative="1" as="geometry" />
        </mxCell>
        <mxCell id="QVfd-FqW5D9q3hL5yYqt-13" value="Domain" style="text;html=1;align=center;verticalAlign=middle;whiteSpace=wrap;rounded=0;" vertex="1" parent="1">
          <mxGeometry x="-50" y="680" width="810" height="30" as="geometry" />
        </mxCell>
        <mxCell id="QVfd-FqW5D9q3hL5yYqt-15" value="" style="rounded=0;whiteSpace=wrap;html=1;" vertex="1" parent="1">
          <mxGeometry x="-30" y="730" width="380" height="180" as="geometry" />
        </mxCell>
        <mxCell id="QVfd-FqW5D9q3hL5yYqt-16" value="UseCases" style="text;html=1;align=center;verticalAlign=middle;whiteSpace=wrap;rounded=0;" vertex="1" parent="1">
          <mxGeometry x="-30" y="730" width="380" height="30" as="geometry" />
        </mxCell>
        <mxCell id="QVfd-FqW5D9q3hL5yYqt-17" value="GetWorkouts" style="rounded=1;whiteSpace=wrap;html=1;" vertex="1" parent="1">
          <mxGeometry x="97.5" y="760" width="125" height="30" as="geometry" />
        </mxCell>
        <mxCell id="QVfd-FqW5D9q3hL5yYqt-18" value="GetVideos" style="rounded=1;whiteSpace=wrap;html=1;" vertex="1" parent="1">
          <mxGeometry x="97.5" y="810" width="125" height="30" as="geometry" />
        </mxCell>
        <mxCell id="QVfd-FqW5D9q3hL5yYqt-26" style="edgeStyle=orthogonalEdgeStyle;rounded=0;orthogonalLoop=1;jettySize=auto;html=1;exitX=0;exitY=0.5;exitDx=0;exitDy=0;entryX=1;entryY=0.5;entryDx=0;entryDy=0;" edge="1" parent="1" source="QVfd-FqW5D9q3hL5yYqt-19" target="QVfd-FqW5D9q3hL5yYqt-15">
          <mxGeometry relative="1" as="geometry" />
        </mxCell>
        <mxCell id="QVfd-FqW5D9q3hL5yYqt-19" value="" style="rounded=0;whiteSpace=wrap;html=1;" vertex="1" parent="1">
          <mxGeometry x="460" y="730" width="280" height="180" as="geometry" />
        </mxCell>
        <mxCell id="QVfd-FqW5D9q3hL5yYqt-20" value="Models" style="text;html=1;align=center;verticalAlign=middle;whiteSpace=wrap;rounded=0;" vertex="1" parent="1">
          <mxGeometry x="460" y="730" width="280" height="30" as="geometry" />
        </mxCell>
        <mxCell id="QVfd-FqW5D9q3hL5yYqt-23" value="Workout" style="rounded=1;whiteSpace=wrap;html=1;" vertex="1" parent="1">
          <mxGeometry x="475" y="760" width="250" height="30" as="geometry" />
        </mxCell>
        <mxCell id="QVfd-FqW5D9q3hL5yYqt-24" value="WorkoutType" style="rounded=1;whiteSpace=wrap;html=1;" vertex="1" parent="1">
          <mxGeometry x="475" y="810" width="250" height="30" as="geometry" />
        </mxCell>
        <mxCell id="QVfd-FqW5D9q3hL5yYqt-25" value="VideoWorkout" style="rounded=1;whiteSpace=wrap;html=1;" vertex="1" parent="1">
          <mxGeometry x="475" y="860" width="250" height="30" as="geometry" />
        </mxCell>
        <mxCell id="QVfd-FqW5D9q3hL5yYqt-32" style="edgeStyle=orthogonalEdgeStyle;rounded=0;orthogonalLoop=1;jettySize=auto;html=1;exitX=0.25;exitY=0;exitDx=0;exitDy=0;entryX=0.5;entryY=1;entryDx=0;entryDy=0;" edge="1" parent="1" source="QVfd-FqW5D9q3hL5yYqt-27" target="QVfd-FqW5D9q3hL5yYqt-15">
          <mxGeometry relative="1" as="geometry" />
        </mxCell>
        <mxCell id="QVfd-FqW5D9q3hL5yYqt-27" value="" style="rounded=0;whiteSpace=wrap;html=1;" vertex="1" parent="1">
          <mxGeometry x="-30" y="930" width="770" height="160" as="geometry" />
        </mxCell>
        <mxCell id="QVfd-FqW5D9q3hL5yYqt-28" value="Repository" style="text;html=1;align=center;verticalAlign=middle;whiteSpace=wrap;rounded=0;" vertex="1" parent="1">
          <mxGeometry x="-25" y="940" width="760" height="30" as="geometry" />
        </mxCell>
        <mxCell id="QVfd-FqW5D9q3hL5yYqt-30" value="WorkoutRepository" style="rounded=1;whiteSpace=wrap;html=1;" vertex="1" parent="1">
          <mxGeometry x="-20" y="980" width="750" height="30" as="geometry" />
        </mxCell>
        <mxCell id="QVfd-FqW5D9q3hL5yYqt-34" value="App" style="text;html=1;align=center;verticalAlign=middle;whiteSpace=wrap;rounded=0;" vertex="1" parent="1">
          <mxGeometry x="-50" y="50" width="810" height="30" as="geometry" />
        </mxCell>
        <mxCell id="QVfd-FqW5D9q3hL5yYqt-36" value="" style="rounded=0;whiteSpace=wrap;html=1;" vertex="1" parent="1">
          <mxGeometry x="-800" y="360" width="590" height="580" as="geometry" />
        </mxCell>
        <mxCell id="QVfd-FqW5D9q3hL5yYqt-38" style="edgeStyle=orthogonalEdgeStyle;rounded=0;orthogonalLoop=1;jettySize=auto;html=1;exitX=0.5;exitY=0;exitDx=0;exitDy=0;entryX=0;entryY=0.25;entryDx=0;entryDy=0;" edge="1" parent="1" source="QVfd-FqW5D9q3hL5yYqt-37" target="QVfd-FqW5D9q3hL5yYqt-33">
          <mxGeometry relative="1" as="geometry" />
        </mxCell>
        <mxCell id="QVfd-FqW5D9q3hL5yYqt-37" value="Data" style="text;html=1;align=center;verticalAlign=middle;whiteSpace=wrap;rounded=0;" vertex="1" parent="1">
          <mxGeometry x="-800" y="360" width="590" height="30" as="geometry" />
        </mxCell>
        <mxCell id="QVfd-FqW5D9q3hL5yYqt-44" value="" style="rounded=0;whiteSpace=wrap;html=1;" vertex="1" parent="1">
          <mxGeometry x="-670" y="620" width="315" height="100" as="geometry" />
        </mxCell>
        <mxCell id="QVfd-FqW5D9q3hL5yYqt-45" value="WorkoutRepositoryImpl" style="rounded=1;whiteSpace=wrap;html=1;" vertex="1" parent="1">
          <mxGeometry x="-655" y="660" width="280" height="30" as="geometry" />
        </mxCell>
        <mxCell id="QVfd-FqW5D9q3hL5yYqt-46" value="Repository" style="text;html=1;align=center;verticalAlign=middle;whiteSpace=wrap;rounded=0;" vertex="1" parent="1">
          <mxGeometry x="-670" y="620" width="315" height="30" as="geometry" />
        </mxCell>
        <mxCell id="QVfd-FqW5D9q3hL5yYqt-58" style="edgeStyle=orthogonalEdgeStyle;rounded=0;orthogonalLoop=1;jettySize=auto;html=1;exitX=0.5;exitY=1;exitDx=0;exitDy=0;entryX=0.5;entryY=0;entryDx=0;entryDy=0;" edge="1" parent="1" source="QVfd-FqW5D9q3hL5yYqt-47" target="QVfd-FqW5D9q3hL5yYqt-46">
          <mxGeometry relative="1" as="geometry" />
        </mxCell>
        <mxCell id="QVfd-FqW5D9q3hL5yYqt-47" value="" style="rounded=0;whiteSpace=wrap;html=1;" vertex="1" parent="1">
          <mxGeometry x="-652.5" y="420" width="280" height="120" as="geometry" />
        </mxCell>
        <mxCell id="QVfd-FqW5D9q3hL5yYqt-48" value="Enties" style="text;html=1;align=center;verticalAlign=middle;whiteSpace=wrap;rounded=0;" vertex="1" parent="1">
          <mxGeometry x="-652.5" y="420" width="280" height="30" as="geometry" />
        </mxCell>
        <mxCell id="QVfd-FqW5D9q3hL5yYqt-50" value="NetWorkRepository" style="rounded=1;whiteSpace=wrap;html=1;" vertex="1" parent="1">
          <mxGeometry x="-20" y="1020" width="750" height="30" as="geometry" />
        </mxCell>
        <mxCell id="QVfd-FqW5D9q3hL5yYqt-65" style="edgeStyle=orthogonalEdgeStyle;rounded=0;orthogonalLoop=1;jettySize=auto;html=1;exitX=1;exitY=0.5;exitDx=0;exitDy=0;entryX=0;entryY=0.5;entryDx=0;entryDy=0;" edge="1" parent="1" source="QVfd-FqW5D9q3hL5yYqt-51" target="QVfd-FqW5D9q3hL5yYqt-36">
          <mxGeometry relative="1" as="geometry" />
        </mxCell>
        <mxCell id="QVfd-FqW5D9q3hL5yYqt-51" value="" style="rounded=0;whiteSpace=wrap;html=1;" vertex="1" parent="1">
          <mxGeometry x="-1200" y="530" width="360" height="240" as="geometry" />
        </mxCell>
        <mxCell id="QVfd-FqW5D9q3hL5yYqt-67" style="edgeStyle=orthogonalEdgeStyle;rounded=0;orthogonalLoop=1;jettySize=auto;html=1;exitX=0.5;exitY=0;exitDx=0;exitDy=0;entryX=0.5;entryY=0;entryDx=0;entryDy=0;" edge="1" parent="1" source="QVfd-FqW5D9q3hL5yYqt-52" target="QVfd-FqW5D9q3hL5yYqt-34">
          <mxGeometry relative="1" as="geometry" />
        </mxCell>
        <mxCell id="QVfd-FqW5D9q3hL5yYqt-52" value="Network" style="text;html=1;align=center;verticalAlign=middle;whiteSpace=wrap;rounded=0;" vertex="1" parent="1">
          <mxGeometry x="-1200" y="530" width="360" height="30" as="geometry" />
        </mxCell>
        <mxCell id="QVfd-FqW5D9q3hL5yYqt-55" value="" style="rounded=0;whiteSpace=wrap;html=1;" vertex="1" parent="1">
          <mxGeometry x="-1185" y="610" width="335" height="100" as="geometry" />
        </mxCell>
        <mxCell id="QVfd-FqW5D9q3hL5yYqt-53" value="Repository" style="text;html=1;align=center;verticalAlign=middle;whiteSpace=wrap;rounded=0;" vertex="1" parent="1">
          <mxGeometry x="-1185" y="610" width="335" height="30" as="geometry" />
        </mxCell>
        <mxCell id="QVfd-FqW5D9q3hL5yYqt-54" value="NetworkRepositoryImpl" style="rounded=1;whiteSpace=wrap;html=1;" vertex="1" parent="1">
          <mxGeometry x="-1170" y="650" width="310" height="30" as="geometry" />
        </mxCell>
        <mxCell id="QVfd-FqW5D9q3hL5yYqt-56" value="Workout" style="rounded=1;whiteSpace=wrap;html=1;" vertex="1" parent="1">
          <mxGeometry x="-637.5" y="450" width="250" height="30" as="geometry" />
        </mxCell>
        <mxCell id="QVfd-FqW5D9q3hL5yYqt-57" value="VideoWorkout" style="rounded=1;whiteSpace=wrap;html=1;" vertex="1" parent="1">
          <mxGeometry x="-637.5" y="490" width="250" height="30" as="geometry" />
        </mxCell>
        <mxCell id="QVfd-FqW5D9q3hL5yYqt-60" value="" style="rounded=0;whiteSpace=wrap;html=1;" vertex="1" parent="1">
          <mxGeometry x="-780" y="750" width="550" height="170" as="geometry" />
        </mxCell>
        <mxCell id="QVfd-FqW5D9q3hL5yYqt-64" style="edgeStyle=orthogonalEdgeStyle;rounded=0;orthogonalLoop=1;jettySize=auto;html=1;exitX=0.5;exitY=0;exitDx=0;exitDy=0;entryX=0.5;entryY=1;entryDx=0;entryDy=0;" edge="1" parent="1" source="QVfd-FqW5D9q3hL5yYqt-61" target="QVfd-FqW5D9q3hL5yYqt-44">
          <mxGeometry relative="1" as="geometry" />
        </mxCell>
        <mxCell id="QVfd-FqW5D9q3hL5yYqt-61" value="Storage" style="text;html=1;align=center;verticalAlign=middle;whiteSpace=wrap;rounded=0;" vertex="1" parent="1">
          <mxGeometry x="-652.5" y="750" width="282.5" height="30" as="geometry" />
        </mxCell>
        <mxCell id="QVfd-FqW5D9q3hL5yYqt-62" value="WorkoutStorage" style="rounded=1;whiteSpace=wrap;html=1;" vertex="1" parent="1">
          <mxGeometry x="-770" y="810" width="240" height="60" as="geometry" />
        </mxCell>
        <mxCell id="QVfd-FqW5D9q3hL5yYqt-63" value="VideoStorage" style="rounded=1;whiteSpace=wrap;html=1;" vertex="1" parent="1">
          <mxGeometry x="-490" y="810" width="240" height="60" as="geometry" />
        </mxCell>
      </root>
    </mxGraphModel>
  </diagram>
</mxfile>
